# xmcd
#
# Track frame offsets:
#	150
#	18555
#	41638
#	64283
#	92180
#	114193
#	143818
#	187925
#	213733
#	235383
#
# Disc length: 3510 seconds
#
# Revision: 1
# Processed by: cddbd v1.5.2PL0 Copyright (c) Steve Scherf et al.
# Submitted via: EZCDAudioConverter 8.0.2.1
#
DISCID=8e0db40a
DTITLE=Various Artist - Da Vàng Trên Xứ Trắng
DYEAR=1996
DGENRE=Contemporary Pop
TTITLE0=Ý Lan - Biển chờ
TTITLE1=Vũ Khanh - Màu yêu thương
TTITLE2=Thanh Lan - Dòng sông xanh
TTITLE3=Ngọc Thắng - Da Vàng Trên Xứ Trắng
TTITLE4=Lê Uyên, Phương - Chiều phi trường
TTITLE5=Elvis Phương, Thanh Lan - Nếu một ngày
TTITLE6=Thái Châu, Hoàng Nam, Thanh Lan - Thiên thai tống biệt
TTITLE7=Ý Lan - Giọt tình
TTITLE8=Lê Uyên, Phương - Một ngày vui mùa đông
TTITLE9=Hợp Ca Hải Ngoại - LK Da vàng, Nối vòng tay lớn
EXTD=
EXTT0=
EXTT1=
EXTT2=
EXTT3=
EXTT4=
EXTT5=
EXTT6=
EXTT7=
EXTT8=
EXTT9=
PLAYORDER=
